<svg xmlns="http://www.w3.org/2000/svg" viewBox="0 0 800 800" role="img" aria-labelledby="title desc">
  <title id="title">Yifei Liu profile visual</title>
  <desc id="desc">A clean geometric profile placeholder with the initials YL and immersive media motifs.</desc>
  <rect width="800" height="800" fill="#f7faf8"/>
  <path d="M80 80h640v640H80z" fill="#ffffff" stroke="#5bffc1" stroke-width="10"/>
  <path d="M128 536c92-124 180-186 264-186 88 0 180 62 276 186" fill="none" stroke="#dfe6e2" stroke-width="24" stroke-linecap="round"/>
  <circle cx="400" cy="268" r="118" fill="#414946"/>
  <path d="M330 260l54 72 88-132" fill="none" stroke="#5bffc1" stroke-width="22" stroke-linecap="round" stroke-linejoin="round"/>
  <g fill="none" stroke="#5bffc1" stroke-width="8" opacity="0.9">
    <circle cx="180" cy="180" r="34"/>
    <circle cx="620" cy="180" r="34"/>
    <circle cx="180" cy="620" r="34"/>
    <circle cx="620" cy="620" r="34"/>
    <path d="M214 180h84M502 180h84M214 620h84M502 620h84M180 214v84M620 214v84M180 502v84M620 502v84"/>
  </g>
  <text x="400" y="654" text-anchor="middle" fill="#414946" font-family="Inter, Arial, sans-serif" font-size="96" font-weight="700">YL</text>
</svg>
