<svg xmlns="http://www.w3.org/2000/svg" viewBox="0 0 900 520" role="img" aria-labelledby="title desc">
  <title id="title">Sonic Playground project image</title>
  <desc id="desc">An abstract VR spatial audio scene with wave lines and a central sound source.</desc>
  <rect width="900" height="520" fill="#f7faf8"/>
  <rect x="52" y="52" width="796" height="416" fill="#ffffff" stroke="#5bffc1" stroke-width="6"/>
  <circle cx="450" cy="270" r="42" fill="#414946"/>
  <circle cx="450" cy="270" r="94" fill="none" stroke="#5bffc1" stroke-width="8"/>
  <circle cx="450" cy="270" r="154" fill="none" stroke="#dfe6e2" stroke-width="8"/>
  <circle cx="450" cy="270" r="214" fill="none" stroke="#dfe6e2" stroke-width="8"/>
  <path d="M222 312c44-32 78-48 102-48s58 16 102 48 78 48 102 48 58-16 102-48" fill="none" stroke="#5bffc1" stroke-width="10" stroke-linecap="round"/>
  <path d="M290 198c34-24 60-36 78-36s44 12 78 36 60 36 78 36 44-12 78-36" fill="none" stroke="#414946" stroke-width="8" stroke-linecap="round"/>
  <text x="450" y="94" text-anchor="middle" fill="#414946" font-family="Arial, sans-serif" font-size="34" font-weight="700">Sonic Playground</text>
</svg>
