<svg xmlns="http://www.w3.org/2000/svg" viewBox="0 0 900 520" role="img" aria-labelledby="title desc">
  <title id="title">Liar VR project image</title>
  <desc id="desc">A clean abstract VR multiplayer scene with cards, avatars, and spatial lines.</desc>
  <rect width="900" height="520" fill="#f7faf8"/>
  <rect x="52" y="52" width="796" height="416" fill="#ffffff" stroke="#5bffc1" stroke-width="6"/>
  <circle cx="262" cy="236" r="72" fill="#414946"/>
  <circle cx="638" cy="236" r="72" fill="#414946"/>
  <path d="M262 326c-82 18-136 58-162 120h324c-26-62-80-102-162-120z" fill="#dfe6e2"/>
  <path d="M638 326c-82 18-136 58-162 120h324c-26-62-80-102-162-120z" fill="#dfe6e2"/>
  <g fill="#ffffff" stroke="#5bffc1" stroke-width="5">
    <rect x="379" y="162" width="86" height="122" rx="6" transform="rotate(-8 422 223)"/>
    <rect x="438" y="154" width="86" height="122" rx="6" transform="rotate(8 481 215)"/>
    <rect x="405" y="238" width="86" height="122" rx="6"/>
  </g>
  <path d="M334 236h44M522 236h44M450 162v-58M450 360v58" stroke="#5bffc1" stroke-width="8" stroke-linecap="round"/>
  <text x="450" y="94" text-anchor="middle" fill="#414946" font-family="Arial, sans-serif" font-size="34" font-weight="700">Liar VR</text>
</svg>
